<svg xmlns="http://www.w3.org/2000/svg" xmlns:xlink="http://www.w3.org/1999/xlink" contentStyleType="text/css" data-diagram-type="SEQUENCE" height="1307px" preserveAspectRatio="xMidYMid meet" style="width: 100%; height: 100%; background: rgb(255, 255, 255); max-width: 100%; position: absolute; top: 50%; left: 50%; transform: translate(-50%, -50%);" version="1.1" viewBox="0 0 1438 1307" width="1438px" zoomAndPan="magnify"><title>LibraryFinder Sequence: Search, View, Favorite, Add Book (Admin) with Activation Boxes</title><defs/><g><text fill="#000000" font-family="sans-serif" font-size="14" font-weight="bold" lengthAdjust="spacing" textLength="706.8086" x="364.6633" y="27.9951">LibraryFinder Sequence: Search, View, Favorite, Add Book (Admin) with Activation Boxes</text><g><title>CatalogActivity</title><rect fill="#FFFFFF" height="145.6641" style="stroke:#181818;stroke-width:1;" width="10" x="254.021" y="149.7266"/></g><g><title>CatalogActivity</title><rect fill="#FFFFFF" height="145.6641" style="stroke:#181818;stroke-width:1;" width="10" x="254.021" y="324.5234"/></g><g><title>CatalogActivity</title><rect fill="#FFFFFF" height="29.1328" style="stroke:#181818;stroke-width:1;" width="10" x="254.021" y="499.3203"/></g><g><title>CatalogActivity</title><rect fill="#FFFFFF" height="29.1328" style="stroke:#181818;stroke-width:1;" width="10" x="254.021" y="816.6484"/></g><g><title>CatalogActivity</title><rect fill="#FFFFFF" height="145.6641" style="stroke:#181818;stroke-width:1;" width="10" x="254.021" y="1062.7109"/></g><g><title>BookDetailsActivity</title><rect fill="#FFFFFF" height="688.9219" style="stroke:#181818;stroke-width:1;" width="10" x="478.6685" y="528.4531"/></g><g><title>BookDetailsActivity</title><rect fill="#FFFFFF" height="93.3984" style="stroke:#181818;stroke-width:1;" width="10" x="483.6685" y="628.8516"/></g><g><title>BookDetailsActivity</title><rect fill="#FFFFFF" height="29.1328" style="stroke:#181818;stroke-width:1;" width="10" x="483.6685" y="758.3828"/></g><g><title>AddBookActivity</title><rect fill="#FFFFFF" height="216.9297" style="stroke:#181818;stroke-width:1;" width="10" x="646.3945" y="845.7813"/></g><g><title>LibraryRepository</title><rect fill="#FFFFFF" height="87.3984" style="stroke:#181818;stroke-width:1;" width="10" x="924.4365" y="178.8594"/></g><g><title>LibraryRepository</title><rect fill="#FFFFFF" height="87.3984" style="stroke:#181818;stroke-width:1;" width="10" x="924.4365" y="353.6563"/></g><g><title>LibraryRepository</title><rect fill="#FFFFFF" height="87.3984" style="stroke:#181818;stroke-width:1;" width="10" x="924.4365" y="946.1797"/></g><g><title>LibraryRepository</title><rect fill="#FFFFFF" height="87.3984" style="stroke:#181818;stroke-width:1;" width="10" x="924.4365" y="1091.8438"/></g><g><title>BookDao</title><rect fill="#FFFFFF" height="29.1328" style="stroke:#181818;stroke-width:1;" width="10" x="1101.3159" y="207.9922"/></g><g><title>BookDao</title><rect fill="#FFFFFF" height="29.1328" style="stroke:#181818;stroke-width:1;" width="10" x="1101.3159" y="382.7891"/></g><g><title>BookDao</title><rect fill="#FFFFFF" height="29.1328" style="stroke:#181818;stroke-width:1;" width="10" x="1101.3159" y="975.3125"/></g><g><title>BookDao</title><rect fill="#FFFFFF" height="29.1328" style="stroke:#181818;stroke-width:1;" width="10" x="1101.3159" y="1120.9766"/></g><g><title>SharedPreferences</title><rect fill="#FFFFFF" height="29.1328" style="stroke:#181818;stroke-width:1;" width="10" x="1223.0972" y="657.9844"/></g><g><title>User</title><rect fill="#000000" fill-opacity="0.00000" height="1107.7813" width="8" x="19.9551" y="118.5938"/><line style="stroke:#181818;stroke-width:0.5;stroke-dasharray:5.0,5.0;" x1="23" x2="23" y1="118.5938" y2="1226.375"/></g><g><title>CatalogActivity</title><rect fill="#000000" fill-opacity="0.00000" height="1107.7813" width="8" x="255.021" y="118.5938"/><line style="stroke:#181818;stroke-width:0.5;stroke-dasharray:5.0,5.0;" x1="258.8374" x2="258.8374" y1="118.5938" y2="1226.375"/></g><g><title>BookDetailsActivity</title><rect fill="#000000" fill-opacity="0.00000" height="1107.7813" width="8" x="479.6685" y="118.5938"/><line style="stroke:#181818;stroke-width:0.5;stroke-dasharray:5.0,5.0;" x1="482.6782" x2="482.6782" y1="118.5938" y2="1226.375"/></g><g><title>AddBookActivity</title><rect fill="#000000" fill-opacity="0.00000" height="1107.7813" width="8" x="647.3945" y="118.5938"/><line style="stroke:#181818;stroke-width:0.5;stroke-dasharray:5.0,5.0;" x1="650.9966" x2="650.9966" y1="118.5938" y2="1226.375"/></g><g><title>LibraryRepository</title><rect fill="#000000" fill-opacity="0.00000" height="1107.7813" width="8" x="925.4365" y="118.5938"/><line style="stroke:#181818;stroke-width:0.5;stroke-dasharray:5.0,5.0;" x1="929.4243" x2="929.4243" y1="118.5938" y2="1226.375"/></g><g><title>BookDao</title><rect fill="#000000" fill-opacity="0.00000" height="1107.7813" width="8" x="1102.3159" y="118.5938"/><line style="stroke:#181818;stroke-width:0.5;stroke-dasharray:5.0,5.0;" x1="1105.9321" x2="1105.9321" y1="118.5938" y2="1226.375"/></g><g><title>SharedPreferences</title><rect fill="#000000" fill-opacity="0.00000" height="1107.7813" width="8" x="1224.0972" y="118.5938"/><line style="stroke:#181818;stroke-width:0.5;stroke-dasharray:5.0,5.0;" x1="1227.6997" x2="1227.6997" y1="118.5938" y2="1226.375"/></g><g><title>AndroidSystem</title><rect fill="#000000" fill-opacity="0.00000" height="1107.7813" width="8" x="1367.8149" y="118.5938"/><line style="stroke:#181818;stroke-width:0.5;stroke-dasharray:5.0,5.0;" x1="1371.4946" x2="1371.4946" y1="118.5938" y2="1226.375"/></g><g class="participant participant-head" data-participant="User"><text fill="#000000" font-family="sans-serif" font-size="14" lengthAdjust="spacing" textLength="31.9102" x="5" y="115.292">User</text><ellipse cx="23.9551" cy="50.7969" fill="#E2E2F0" rx="8" ry="8" style="stroke:#181818;stroke-width:0.5;"/><path d="M23.9551,58.7969 L23.9551,85.7969 M10.9551,66.7969 L36.9551,66.7969 M23.9551,85.7969 L10.9551,100.7969 M23.9551,85.7969 L36.9551,100.7969" fill="none" style="stroke:#181818;stroke-width:0.5;"/></g><g class="participant participant-tail" data-participant="User"><text fill="#000000" font-family="sans-serif" font-size="14" lengthAdjust="spacing" textLength="31.9102" x="5" y="1238.3701">User</text><ellipse cx="23.9551" cy="1250.1719" fill="#E2E2F0" rx="8" ry="8" style="stroke:#181818;stroke-width:0.5;"/><path d="M23.9551,1258.1719 L23.9551,1285.1719 M10.9551,1266.1719 L36.9551,1266.1719 M23.9551,1285.1719 L10.9551,1300.1719 M23.9551,1285.1719 L36.9551,1300.1719" fill="none" style="stroke:#181818;stroke-width:0.5;"/></g><g class="participant participant-head" data-participant="Catalog"><rect fill="#E2E2F0" height="30.2969" rx="2.5" ry="2.5" style="stroke:#181818;stroke-width:0.5;" width="120.3672" x="198.8374" y="87.2969"/><text fill="#000000" font-family="sans-serif" font-size="14" lengthAdjust="spacing" textLength="106.3672" x="205.8374" y="107.292">CatalogActivity</text></g><g class="participant participant-tail" data-participant="Catalog"><rect fill="#E2E2F0" height="30.2969" rx="2.5" ry="2.5" style="stroke:#181818;stroke-width:0.5;" width="120.3672" x="198.8374" y="1225.375"/><text fill="#000000" font-family="sans-serif" font-size="14" lengthAdjust="spacing" textLength="106.3672" x="205.8374" y="1245.3701">CatalogActivity</text></g><g class="participant participant-head" data-participant="Details"><rect fill="#E2E2F0" height="30.2969" rx="2.5" ry="2.5" style="stroke:#181818;stroke-width:0.5;" width="149.9805" x="408.6782" y="87.2969"/><text fill="#000000" font-family="sans-serif" font-size="14" lengthAdjust="spacing" textLength="135.9805" x="415.6782" y="107.292">BookDetailsActivity</text></g><g class="participant participant-tail" data-participant="Details"><rect fill="#E2E2F0" height="30.2969" rx="2.5" ry="2.5" style="stroke:#181818;stroke-width:0.5;" width="149.9805" x="408.6782" y="1225.375"/><text fill="#000000" font-family="sans-serif" font-size="14" lengthAdjust="spacing" textLength="135.9805" x="415.6782" y="1245.3701">BookDetailsActivity</text></g><g class="participant participant-head" data-participant="AddBook"><rect fill="#E2E2F0" height="30.2969" rx="2.5" ry="2.5" style="stroke:#181818;stroke-width:0.5;" width="128.7959" x="586.9966" y="87.2969"/><text fill="#000000" font-family="sans-serif" font-size="14" lengthAdjust="spacing" textLength="114.7959" x="593.9966" y="107.292">AddBookActivity</text></g><g class="participant participant-tail" data-participant="AddBook"><rect fill="#E2E2F0" height="30.2969" rx="2.5" ry="2.5" style="stroke:#181818;stroke-width:0.5;" width="128.7959" x="586.9966" y="1225.375"/><text fill="#000000" font-family="sans-serif" font-size="14" lengthAdjust="spacing" textLength="114.7959" x="593.9966" y="1245.3701">AddBookActivity</text></g><g class="participant participant-head" data-participant="Repo"><rect fill="#E2E2F0" height="30.2969" rx="2.5" ry="2.5" style="stroke:#181818;stroke-width:0.5;" width="138.0244" x="860.4243" y="87.2969"/><text fill="#000000" font-family="sans-serif" font-size="14" lengthAdjust="spacing" textLength="124.0244" x="867.4243" y="107.292">LibraryRepository</text></g><g class="participant participant-tail" data-participant="Repo"><rect fill="#E2E2F0" height="30.2969" rx="2.5" ry="2.5" style="stroke:#181818;stroke-width:0.5;" width="138.0244" x="860.4243" y="1225.375"/><text fill="#000000" font-family="sans-serif" font-size="14" lengthAdjust="spacing" textLength="124.0244" x="867.4243" y="1245.3701">LibraryRepository</text></g><g class="participant participant-head" data-participant="Dao"><rect fill="#E2E2F0" height="30.2969" rx="2.5" ry="2.5" style="stroke:#181818;stroke-width:0.5;" width="76.7676" x="1067.9321" y="87.2969"/><text fill="#000000" font-family="sans-serif" font-size="14" lengthAdjust="spacing" textLength="62.7676" x="1074.9321" y="107.292">BookDao</text></g><g class="participant participant-tail" data-participant="Dao"><rect fill="#E2E2F0" height="30.2969" rx="2.5" ry="2.5" style="stroke:#181818;stroke-width:0.5;" width="76.7676" x="1067.9321" y="1225.375"/><text fill="#000000" font-family="sans-serif" font-size="14" lengthAdjust="spacing" textLength="62.7676" x="1074.9321" y="1245.3701">BookDao</text></g><g class="participant participant-head" data-participant="Prefs"><rect fill="#E2E2F0" height="30.2969" rx="2.5" ry="2.5" style="stroke:#181818;stroke-width:0.5;" width="146.7949" x="1154.6997" y="87.2969"/><text fill="#000000" font-family="sans-serif" font-size="14" lengthAdjust="spacing" textLength="132.7949" x="1161.6997" y="107.292">SharedPreferences</text></g><g class="participant participant-tail" data-participant="Prefs"><rect fill="#E2E2F0" height="30.2969" rx="2.5" ry="2.5" style="stroke:#181818;stroke-width:0.5;" width="146.7949" x="1154.6997" y="1225.375"/><text fill="#000000" font-family="sans-serif" font-size="14" lengthAdjust="spacing" textLength="132.7949" x="1161.6997" y="1245.3701">SharedPreferences</text></g><g class="participant participant-head" data-participant="AndroidSystem"><rect fill="#E2E2F0" height="30.2969" rx="2.5" ry="2.5" style="stroke:#181818;stroke-width:0.5;" width="120.6406" x="1311.4946" y="87.2969"/><text fill="#000000" font-family="sans-serif" font-size="14" lengthAdjust="spacing" textLength="106.6406" x="1318.4946" y="107.292">AndroidSystem</text></g><g class="participant participant-tail" data-participant="AndroidSystem"><rect fill="#E2E2F0" height="30.2969" rx="2.5" ry="2.5" style="stroke:#181818;stroke-width:0.5;" width="120.6406" x="1311.4946" y="1225.375"/><text fill="#000000" font-family="sans-serif" font-size="14" lengthAdjust="spacing" textLength="106.6406" x="1318.4946" y="1245.3701">AndroidSystem</text></g><g><title>CatalogActivity</title><rect fill="#FFFFFF" height="145.6641" style="stroke:#181818;stroke-width:1;" width="10" x="254.021" y="149.7266"/></g><g><title>CatalogActivity</title><rect fill="#FFFFFF" height="145.6641" style="stroke:#181818;stroke-width:1;" width="10" x="254.021" y="324.5234"/></g><g><title>CatalogActivity</title><rect fill="#FFFFFF" height="29.1328" style="stroke:#181818;stroke-width:1;" width="10" x="254.021" y="499.3203"/></g><g><title>CatalogActivity</title><rect fill="#FFFFFF" height="29.1328" style="stroke:#181818;stroke-width:1;" width="10" x="254.021" y="816.6484"/></g><g><title>CatalogActivity</title><rect fill="#FFFFFF" height="145.6641" style="stroke:#181818;stroke-width:1;" width="10" x="254.021" y="1062.7109"/></g><g><title>BookDetailsActivity</title><rect fill="#FFFFFF" height="688.9219" style="stroke:#181818;stroke-width:1;" width="10" x="478.6685" y="528.4531"/></g><g><title>BookDetailsActivity</title><rect fill="#FFFFFF" height="93.3984" style="stroke:#181818;stroke-width:1;" width="10" x="483.6685" y="628.8516"/></g><g><title>BookDetailsActivity</title><rect fill="#FFFFFF" height="29.1328" style="stroke:#181818;stroke-width:1;" width="10" x="483.6685" y="758.3828"/></g><g><title>AddBookActivity</title><rect fill="#FFFFFF" height="216.9297" style="stroke:#181818;stroke-width:1;" width="10" x="646.3945" y="845.7813"/></g><g><title>LibraryRepository</title><rect fill="#FFFFFF" height="87.3984" style="stroke:#181818;stroke-width:1;" width="10" x="924.4365" y="178.8594"/></g><g><title>LibraryRepository</title><rect fill="#FFFFFF" height="87.3984" style="stroke:#181818;stroke-width:1;" width="10" x="924.4365" y="353.6563"/></g><g><title>LibraryRepository</title><rect fill="#FFFFFF" height="87.3984" style="stroke:#181818;stroke-width:1;" width="10" x="924.4365" y="946.1797"/></g><g><title>LibraryRepository</title><rect fill="#FFFFFF" height="87.3984" style="stroke:#181818;stroke-width:1;" width="10" x="924.4365" y="1091.8438"/></g><g><title>BookDao</title><rect fill="#FFFFFF" height="29.1328" style="stroke:#181818;stroke-width:1;" width="10" x="1101.3159" y="207.9922"/></g><g><title>BookDao</title><rect fill="#FFFFFF" height="29.1328" style="stroke:#181818;stroke-width:1;" width="10" x="1101.3159" y="382.7891"/></g><g><title>BookDao</title><rect fill="#FFFFFF" height="29.1328" style="stroke:#181818;stroke-width:1;" width="10" x="1101.3159" y="975.3125"/></g><g><title>BookDao</title><rect fill="#FFFFFF" height="29.1328" style="stroke:#181818;stroke-width:1;" width="10" x="1101.3159" y="1120.9766"/></g><g><title>SharedPreferences</title><rect fill="#FFFFFF" height="29.1328" style="stroke:#181818;stroke-width:1;" width="10" x="1223.0972" y="657.9844"/></g><g class="message" data-participant-1="User" data-participant-2="Catalog"><polygon fill="#181818" points="242.021,145.7266,252.021,149.7266,242.021,153.7266,246.021,149.7266" style="stroke:#181818;stroke-width:1;"/><line style="stroke:#181818;stroke-width:1;" x1="23.9551" x2="248.021" y1="149.7266" y2="149.7266"/><text fill="#000000" font-family="sans-serif" font-size="13" lengthAdjust="spacing" textLength="64.251" x="30.9551" y="144.6606">Open App</text></g><g class="message" data-participant-1="Catalog" data-participant-2="Repo"><polygon fill="#181818" points="912.4365,174.8594,922.4365,178.8594,912.4365,182.8594,916.4365,178.8594" style="stroke:#181818;stroke-width:1;"/><line style="stroke:#181818;stroke-width:1;" x1="264.021" x2="918.4365" y1="178.8594" y2="178.8594"/><text fill="#000000" font-family="sans-serif" font-size="13" lengthAdjust="spacing" textLength="93.1709" x="271.021" y="173.7935">loadAllBooks()</text></g><g class="message" data-participant-1="Repo" data-participant-2="Dao"><polygon fill="#181818" points="1089.3159,203.9922,1099.3159,207.9922,1089.3159,211.9922,1093.3159,207.9922" style="stroke:#181818;stroke-width:1;"/><line style="stroke:#181818;stroke-width:1;" x1="934.4365" x2="1095.3159" y1="207.9922" y2="207.9922"/><text fill="#000000" font-family="sans-serif" font-size="13" lengthAdjust="spacing" textLength="63.7876" x="941.4365" y="202.9263">queryAll()</text></g><g class="message" data-participant-1="Dao" data-participant-2="Repo"><polygon fill="#181818" points="945.4365,233.125,935.4365,237.125,945.4365,241.125,941.4365,237.125" style="stroke:#181818;stroke-width:1;"/><line style="stroke:#181818;stroke-width:1;stroke-dasharray:2.0,2.0;" x1="939.4365" x2="1105.3159" y1="237.125" y2="237.125"/><text fill="#000000" font-family="sans-serif" font-size="13" lengthAdjust="spacing" textLength="105.6504" x="951.4365" y="232.0591">returnAllBooks()</text></g><g class="message" data-participant-1="Repo" data-participant-2="Catalog"><polygon fill="#181818" points="275.021,262.2578,265.021,266.2578,275.021,270.2578,271.021,266.2578" style="stroke:#181818;stroke-width:1;"/><line style="stroke:#181818;stroke-width:1;stroke-dasharray:2.0,2.0;" x1="269.021" x2="928.4365" y1="266.2578" y2="266.2578"/><text fill="#000000" font-family="sans-serif" font-size="13" lengthAdjust="spacing" textLength="112.2583" x="281.021" y="261.1919">returnBooksList()</text></g><g class="message" data-participant-1="Catalog" data-participant-2="User"><polygon fill="#181818" points="34.9551,291.3906,24.9551,295.3906,34.9551,299.3906,30.9551,295.3906" style="stroke:#181818;stroke-width:1;"/><line style="stroke:#181818;stroke-width:1;" x1="28.9551" x2="258.021" y1="295.3906" y2="295.3906"/><text fill="#000000" font-family="sans-serif" font-size="13" lengthAdjust="spacing" textLength="138.582" x="40.9551" y="290.3247">displayBookCatalog()</text></g><g class="message" data-participant-1="User" data-participant-2="Catalog"><polygon fill="#181818" points="242.021,320.5234,252.021,324.5234,242.021,328.5234,246.021,324.5234" style="stroke:#181818;stroke-width:1;"/><line style="stroke:#181818;stroke-width:1;" x1="23.9551" x2="248.021" y1="324.5234" y2="324.5234"/><text fill="#000000" font-family="sans-serif" font-size="13" lengthAdjust="spacing" textLength="211.0659" x="30.9551" y="319.4575">Enter search query (title/author)</text></g><g class="message" data-participant-1="Catalog" data-participant-2="Repo"><polygon fill="#181818" points="912.4365,349.6563,922.4365,353.6563,912.4365,357.6563,916.4365,353.6563" style="stroke:#181818;stroke-width:1;"/><line style="stroke:#181818;stroke-width:1;" x1="264.021" x2="918.4365" y1="353.6563" y2="353.6563"/><text fill="#000000" font-family="sans-serif" font-size="13" lengthAdjust="spacing" textLength="130.2666" x="271.021" y="348.5903">searchBooks(query)</text></g><g class="message" data-participant-1="Repo" data-participant-2="Dao"><polygon fill="#181818" points="1089.3159,378.7891,1099.3159,382.7891,1089.3159,386.7891,1093.3159,382.7891" style="stroke:#181818;stroke-width:1;"/><line style="stroke:#181818;stroke-width:1;" x1="934.4365" x2="1095.3159" y1="382.7891" y2="382.7891"/><text fill="#000000" font-family="sans-serif" font-size="13" lengthAdjust="spacing" textLength="91.1396" x="941.4365" y="377.7231">search(query)</text></g><g class="message" data-participant-1="Dao" data-participant-2="Repo"><polygon fill="#181818" points="945.4365,407.9219,935.4365,411.9219,945.4365,415.9219,941.4365,411.9219" style="stroke:#181818;stroke-width:1;"/><line style="stroke:#181818;stroke-width:1;stroke-dasharray:2.0,2.0;" x1="939.4365" x2="1105.3159" y1="411.9219" y2="411.9219"/><text fill="#000000" font-family="sans-serif" font-size="13" lengthAdjust="spacing" textLength="142.8794" x="951.4365" y="406.856">returnSearchResults()</text></g><g class="message" data-participant-1="Repo" data-participant-2="Catalog"><polygon fill="#181818" points="275.021,437.0547,265.021,441.0547,275.021,445.0547,271.021,441.0547" style="stroke:#181818;stroke-width:1;"/><line style="stroke:#181818;stroke-width:1;stroke-dasharray:2.0,2.0;" x1="269.021" x2="928.4365" y1="441.0547" y2="441.0547"/><text fill="#000000" font-family="sans-serif" font-size="13" lengthAdjust="spacing" textLength="111.0269" x="281.021" y="435.9888">updateBookList()</text></g><g class="message" data-participant-1="Catalog" data-participant-2="User"><polygon fill="#181818" points="34.9551,466.1875,24.9551,470.1875,34.9551,474.1875,30.9551,470.1875" style="stroke:#181818;stroke-width:1;"/><line style="stroke:#181818;stroke-width:1;" x1="28.9551" x2="258.021" y1="470.1875" y2="470.1875"/><text fill="#000000" font-family="sans-serif" font-size="13" lengthAdjust="spacing" textLength="143.0571" x="40.9551" y="465.1216">showFilteredCatalog()</text></g><g class="message" data-participant-1="User" data-participant-2="Catalog"><polygon fill="#181818" points="242.021,495.3203,252.021,499.3203,242.021,503.3203,246.021,499.3203" style="stroke:#181818;stroke-width:1;"/><line style="stroke:#181818;stroke-width:1;" x1="23.9551" x2="248.021" y1="499.3203" y2="499.3203"/><text fill="#000000" font-family="sans-serif" font-size="13" lengthAdjust="spacing" textLength="115.3877" x="30.9551" y="494.2544">selects Book item</text></g><g class="message" data-participant-1="Catalog" data-participant-2="Details"><polygon fill="#181818" points="466.6685,524.4531,476.6685,528.4531,466.6685,532.4531,470.6685,528.4531" style="stroke:#181818;stroke-width:1;"/><line style="stroke:#181818;stroke-width:1;" x1="259.021" x2="472.6685" y1="528.4531" y2="528.4531"/><text fill="#000000" font-family="sans-serif" font-size="13" lengthAdjust="spacing" textLength="195.6475" x="266.021" y="523.3872">launchIntent(book Parcelable)</text></g><g class="message" data-participant-1="Details" data-participant-2="Details"><line style="stroke:#181818;stroke-width:1;" x1="488.6685" x2="530.6685" y1="557.5859" y2="557.5859"/><line style="stroke:#181818;stroke-width:1;" x1="530.6685" x2="530.6685" y1="557.5859" y2="570.5859"/><line style="stroke:#181818;stroke-width:1;" x1="489.6685" x2="530.6685" y1="570.5859" y2="570.5859"/><polygon fill="#181818" points="499.6685,566.5859,489.6685,570.5859,499.6685,574.5859,495.6685,570.5859" style="stroke:#181818;stroke-width:1;"/><text fill="#000000" font-family="sans-serif" font-size="13" lengthAdjust="spacing" textLength="133.7261" x="495.6685" y="552.52">displayBookDetails()</text></g><g class="message" data-participant-1="Details" data-participant-2="User"><polygon fill="#181818" points="34.9551,595.7188,24.9551,599.7188,34.9551,603.7188,30.9551,599.7188" style="stroke:#181818;stroke-width:1;"/><line style="stroke:#181818;stroke-width:1;" x1="28.9551" x2="477.6685" y1="599.7188" y2="599.7188"/><text fill="#000000" font-family="sans-serif" font-size="13" lengthAdjust="spacing" textLength="121.1641" x="40.9551" y="594.6528">showBookDetails()</text></g><g class="message" data-participant-1="User" data-participant-2="Details"><polygon fill="#181818" points="471.6685,624.8516,481.6685,628.8516,471.6685,632.8516,475.6685,628.8516" style="stroke:#181818;stroke-width:1;"/><line style="stroke:#181818;stroke-width:1;" x1="23.9551" x2="477.6685" y1="628.8516" y2="628.8516"/><text fill="#000000" font-family="sans-serif" font-size="13" lengthAdjust="spacing" textLength="104.4507" x="30.9551" y="623.7856">toggleFavorite()</text></g><g class="message" data-participant-1="Details" data-participant-2="Prefs"><polygon fill="#181818" points="1211.0972,653.9844,1221.0972,657.9844,1211.0972,661.9844,1215.0972,657.9844" style="stroke:#181818;stroke-width:1;"/><line style="stroke:#181818;stroke-width:1;" x1="493.6685" x2="1217.0972" y1="657.9844" y2="657.9844"/><text fill="#000000" font-family="sans-serif" font-size="13" lengthAdjust="spacing" textLength="229.0615" x="500.6685" y="652.9185">updateFavoriteState(bookId, isFav)</text></g><g class="message" data-participant-1="Prefs" data-participant-2="Details"><polygon fill="#181818" points="504.6685,683.1172,494.6685,687.1172,504.6685,691.1172,500.6685,687.1172" style="stroke:#181818;stroke-width:1;"/><line style="stroke:#181818;stroke-width:1;stroke-dasharray:2.0,2.0;" x1="498.6685" x2="1227.0972" y1="687.1172" y2="687.1172"/><text fill="#000000" font-family="sans-serif" font-size="13" lengthAdjust="spacing" textLength="106.7612" x="510.6685" y="682.0513">confirmUpdate()</text></g><g class="message" data-participant-1="Details" data-participant-2="Details"><line style="stroke:#181818;stroke-width:1;" x1="493.6685" x2="535.6685" y1="721.25" y2="721.25"/><line style="stroke:#181818;stroke-width:1;" x1="535.6685" x2="535.6685" y1="721.25" y2="734.25"/><line style="stroke:#181818;stroke-width:1;" x1="488.6685" x2="535.6685" y1="734.25" y2="734.25"/><polygon fill="#181818" points="498.6685,730.25,488.6685,734.25,498.6685,738.25,494.6685,734.25" style="stroke:#181818;stroke-width:1;"/><text fill="#000000" font-family="sans-serif" font-size="13" lengthAdjust="spacing" textLength="122.4399" x="500.6685" y="716.1841">updateUIFavorite()</text></g><g class="message" data-participant-1="User" data-participant-2="Details"><polygon fill="#181818" points="471.6685,754.3828,481.6685,758.3828,471.6685,762.3828,475.6685,758.3828" style="stroke:#181818;stroke-width:1;"/><line style="stroke:#181818;stroke-width:1;" x1="23.9551" x2="477.6685" y1="758.3828" y2="758.3828"/><text fill="#000000" font-family="sans-serif" font-size="13" lengthAdjust="spacing" textLength="70.9795" x="30.9551" y="753.3169">click Share</text></g><g class="message" data-participant-1="Details" data-participant-2="AndroidSystem"><polygon fill="#181818" points="1359.8149,783.5156,1369.8149,787.5156,1359.8149,791.5156,1363.8149,787.5156" style="stroke:#181818;stroke-width:1;"/><line style="stroke:#181818;stroke-width:1;" x1="488.6685" x2="1365.8149" y1="787.5156" y2="787.5156"/><text fill="#000000" font-family="sans-serif" font-size="13" lengthAdjust="spacing" textLength="176.9727" x="495.6685" y="782.4497">ACTION_SEND with citation</text></g><g class="message" data-participant-1="User" data-participant-2="Catalog"><polygon fill="#181818" points="242.021,812.6484,252.021,816.6484,242.021,820.6484,246.021,816.6484" style="stroke:#181818;stroke-width:1;"/><line style="stroke:#181818;stroke-width:1;" x1="23.9551" x2="248.021" y1="816.6484" y2="816.6484"/><text fill="#000000" font-family="sans-serif" font-size="13" lengthAdjust="spacing" textLength="179.4927" x="30.9551" y="811.5825">(admin) click FAB Add Book</text></g><g class="message" data-participant-1="Catalog" data-participant-2="AddBook"><polygon fill="#181818" points="634.3945,841.7813,644.3945,845.7813,634.3945,849.7813,638.3945,845.7813" style="stroke:#181818;stroke-width:1;"/><line style="stroke:#181818;stroke-width:1;" x1="259.021" x2="640.3945" y1="845.7813" y2="845.7813"/><text fill="#000000" font-family="sans-serif" font-size="13" lengthAdjust="spacing" textLength="160.1831" x="266.021" y="840.7153">launchAddBookActivity()</text></g><g class="message" data-participant-1="User" data-participant-2="AddBook"><polygon fill="#181818" points="634.3945,870.9141,644.3945,874.9141,634.3945,878.9141,638.3945,874.9141" style="stroke:#181818;stroke-width:1;"/><line style="stroke:#181818;stroke-width:1;" x1="23.9551" x2="640.3945" y1="874.9141" y2="874.9141"/><text fill="#000000" font-family="sans-serif" font-size="13" lengthAdjust="spacing" textLength="162.8047" x="30.9551" y="869.8481">enter book info + submit</text></g><g class="message" data-participant-1="AddBook" data-participant-2="AddBook"><line style="stroke:#181818;stroke-width:1;" x1="656.3945" x2="698.3945" y1="904.0469" y2="904.0469"/><line style="stroke:#181818;stroke-width:1;" x1="698.3945" x2="698.3945" y1="904.0469" y2="917.0469"/><line style="stroke:#181818;stroke-width:1;" x1="657.3945" x2="698.3945" y1="917.0469" y2="917.0469"/><polygon fill="#181818" points="667.3945,913.0469,657.3945,917.0469,667.3945,921.0469,663.3945,917.0469" style="stroke:#181818;stroke-width:1;"/><text fill="#000000" font-family="sans-serif" font-size="13" lengthAdjust="spacing" textLength="244.042" x="663.3945" y="898.981">validate(title, author, category, shelf)</text></g><g class="message" data-participant-1="AddBook" data-participant-2="Repo"><polygon fill="#181818" points="912.4365,942.1797,922.4365,946.1797,912.4365,950.1797,916.4365,946.1797" style="stroke:#181818;stroke-width:1;"/><line style="stroke:#181818;stroke-width:1;" x1="656.3945" x2="918.4365" y1="946.1797" y2="946.1797"/><text fill="#000000" font-family="sans-serif" font-size="13" lengthAdjust="spacing" textLength="136.2842" x="663.3945" y="941.1138">saveBook(new Book)</text></g><g class="message" data-participant-1="Repo" data-participant-2="Dao"><polygon fill="#181818" points="1089.3159,971.3125,1099.3159,975.3125,1089.3159,979.3125,1093.3159,975.3125" style="stroke:#181818;stroke-width:1;"/><line style="stroke:#181818;stroke-width:1;" x1="934.4365" x2="1095.3159" y1="975.3125" y2="975.3125"/><text fill="#000000" font-family="sans-serif" font-size="13" lengthAdjust="spacing" textLength="110.5635" x="941.4365" y="970.2466">insert(new Book)</text></g><g class="message" data-participant-1="Dao" data-participant-2="Repo"><polygon fill="#181818" points="945.4365,1000.4453,935.4365,1004.4453,945.4365,1008.4453,941.4365,1004.4453" style="stroke:#181818;stroke-width:1;"/><line style="stroke:#181818;stroke-width:1;stroke-dasharray:2.0,2.0;" x1="939.4365" x2="1105.3159" y1="1004.4453" y2="1004.4453"/><text fill="#000000" font-family="sans-serif" font-size="13" lengthAdjust="spacing" textLength="96.9668" x="951.4365" y="999.3794">confirmInsert()</text></g><g class="message" data-participant-1="Repo" data-participant-2="AddBook"><polygon fill="#181818" points="667.3945,1029.5781,657.3945,1033.5781,667.3945,1037.5781,663.3945,1033.5781" style="stroke:#181818;stroke-width:1;"/><line style="stroke:#181818;stroke-width:1;stroke-dasharray:2.0,2.0;" x1="661.3945" x2="928.4365" y1="1033.5781" y2="1033.5781"/><text fill="#000000" font-family="sans-serif" font-size="13" lengthAdjust="spacing" textLength="91.5903" x="673.3945" y="1028.5122">confirmSave()</text></g><g class="message" data-participant-1="AddBook" data-participant-2="Catalog"><polygon fill="#181818" points="275.021,1058.7109,265.021,1062.7109,275.021,1066.7109,271.021,1062.7109" style="stroke:#181818;stroke-width:1;"/><line style="stroke:#181818;stroke-width:1;" x1="269.021" x2="650.3945" y1="1062.7109" y2="1062.7109"/><text fill="#000000" font-family="sans-serif" font-size="13" lengthAdjust="spacing" textLength="186.0054" x="281.021" y="1057.645">return with result(new book)</text></g><g class="message" data-participant-1="Catalog" data-participant-2="Repo"><polygon fill="#181818" points="912.4365,1087.8438,922.4365,1091.8438,912.4365,1095.8438,916.4365,1091.8438" style="stroke:#181818;stroke-width:1;"/><line style="stroke:#181818;stroke-width:1;" x1="264.021" x2="918.4365" y1="1091.8438" y2="1091.8438"/><text fill="#000000" font-family="sans-serif" font-size="13" lengthAdjust="spacing" textLength="95.5449" x="271.021" y="1086.7778">refreshBooks()</text></g><g class="message" data-participant-1="Repo" data-participant-2="Dao"><polygon fill="#181818" points="1089.3159,1116.9766,1099.3159,1120.9766,1089.3159,1124.9766,1093.3159,1120.9766" style="stroke:#181818;stroke-width:1;"/><line style="stroke:#181818;stroke-width:1;" x1="934.4365" x2="1095.3159" y1="1120.9766" y2="1120.9766"/><text fill="#000000" font-family="sans-serif" font-size="13" lengthAdjust="spacing" textLength="63.7876" x="941.4365" y="1115.9106">queryAll()</text></g><g class="message" data-participant-1="Dao" data-participant-2="Repo"><polygon fill="#181818" points="945.4365,1146.1094,935.4365,1150.1094,945.4365,1154.1094,941.4365,1150.1094" style="stroke:#181818;stroke-width:1;"/><line style="stroke:#181818;stroke-width:1;stroke-dasharray:2.0,2.0;" x1="939.4365" x2="1105.3159" y1="1150.1094" y2="1150.1094"/><text fill="#000000" font-family="sans-serif" font-size="13" lengthAdjust="spacing" textLength="105.6504" x="951.4365" y="1145.0435">returnAllBooks()</text></g><g class="message" data-participant-1="Repo" data-participant-2="Catalog"><polygon fill="#181818" points="275.021,1175.2422,265.021,1179.2422,275.021,1183.2422,271.021,1179.2422" style="stroke:#181818;stroke-width:1;"/><line style="stroke:#181818;stroke-width:1;stroke-dasharray:2.0,2.0;" x1="269.021" x2="928.4365" y1="1179.2422" y2="1179.2422"/><text fill="#000000" font-family="sans-serif" font-size="13" lengthAdjust="spacing" textLength="111.0269" x="281.021" y="1174.1763">updateBookList()</text></g><g class="message" data-participant-1="Catalog" data-participant-2="User"><polygon fill="#181818" points="34.9551,1204.375,24.9551,1208.375,34.9551,1212.375,30.9551,1208.375" style="stroke:#181818;stroke-width:1;"/><line style="stroke:#181818;stroke-width:1;" x1="28.9551" x2="258.021" y1="1208.375" y2="1208.375"/><text fill="#000000" font-family="sans-serif" font-size="13" lengthAdjust="spacing" textLength="204.7183" x="40.9551" y="1203.3091">updated catalog with new book</text></g><!--SRC=[nLLDR-8m4BtpAqOz1MsglNDOAVr0GghQgYnxNPbu85QDdRKTMFxzZZyI4g2KdlR0H-mtC- -DnozEE8dm99Q6cVrKA8u6vlYdGLNYXFunKrOv_1Auos7Ajje8XpaKdCETrk-G5NmZr1XsmbLGb4vicHDQqUPVjACHAvqsiB1eHgEQ6ITAKJFbuEQUEIRrEaG8jxy1PY6j3O6-oWCw9gGTWDFQ44oqF7u0J6j7zPFWDwor5SGnOltZcV9CnvBiQ7DUCOFyrU0AZU-N3J3_JDAzQBZzqQgQm4kD2egwzatnRS9ESFhrQCzW0b8pNaZfYzjiV0W8_FoNXnAT2T11cJr1-oZFapvms-Kpw1gZUXav3j0nPPziZ0Zm9s7TC2JGw97sKYV0XQqbs_kOj3UCQjMUTkPHELgnOTQY8iYSdyllh76LDkChMXQZexwGucBR8le4-57duZLuGzj8TrNxcfhJfcTpRVTifNTJ8QaHoB_OFeiIIsVZXQJhkRdOhdHnQCXOeyfgHhrNBblws5TIYP8j9PwlV12TBb_w7QJjZK5Q8nqzu47k4DBfwZ8vlLvBR4rdCE6dzSEjQnlVnimTFGHjCvw3iBJUon8lQlWEfzSLBhLQ2RDPX5p3KuWnvtJ7oejPZsz_J1BZKvMb5EKx12kvAB1Gt6Z1vtjB9po1ulxdxENvz_pn-I6QRobSiDwBLRkPoLZqxLXzMjnrbdvnU9APjiDpvBVP9sFJMd7Bfik6mG3230grql0DRBFS23TAY05uowG81nCi8eVe4JcKjBOc9yzfk52knltWv15i6-vafd0Nj5xq2A68fZk7FRM9D36p6FAnGNGYKi2S69rnXnxp8qUEPss24mLgoq2jbw1xtttkcJJBbAdwZw-Ph_jaZE3-jCD6w4VRY3FZzmy0]--></g></svg>